<svg width="56" height="56" viewBox="0 0 56 56" fill="none" xmlns="http://www.w3.org/2000/svg">
<path d="M14 0C12.0859 0 10.5 1.58594 10.5 3.5V19.25C10.5 20.2207 11.2793 21 12.25 21H40.25C41.2207 21 42 20.2207 42 19.25V3.5C42 1.58594 40.4141 0 38.5 0H14ZM14 7H38.5V17.5H14V7ZM14.8203 24.5L8.51758 35H12.6055L18.8945 24.5H14.8203ZM24.5 24.5V35H28V24.5H24.5ZM33.6055 24.5L39.9082 35H43.9824L37.6797 24.5H33.6055ZM3.5 38.5C1.57227 38.5 0 40.0723 0 42V49C0 50.9277 1.57227 52.5 3.5 52.5H10.5C12.4277 52.5 14 50.9277 14 49V42C14 40.0723 12.4277 38.5 10.5 38.5H3.5ZM21 38.5C19.0723 38.5 17.5 40.0723 17.5 42V49C17.5 50.9277 19.0723 52.5 21 52.5H31.5C33.4277 52.5 35 50.9277 35 49V42C35 40.0723 33.4277 38.5 31.5 38.5H21ZM42 38.5C40.0723 38.5 38.5 40.0723 38.5 42V49C38.5 50.9277 40.0723 52.5 42 52.5H49C50.9277 52.5 52.5 50.9277 52.5 49V42C52.5 40.0723 50.9277 38.5 49 38.5H42ZM3.5 42H10.5V49H3.5V42ZM21 42H31.5V49H21V42ZM42 42H49V49H42V42Z" fill="#FFD200"/>
</svg>
